<?xml version="1.0" standalone="no"?>
<!DOCTYPE svg PUBLIC "-//W3C//DTD SVG 20010904//EN"
 "http://www.w3.org/TR/2001/REC-SVG-20010904/DTD/svg10.dtd">
<svg version="1.0" xmlns="http://www.w3.org/2000/svg"
 width="1110.000000pt" height="738.000000pt" viewBox="0 0 1110.000000 738.000000"
 preserveAspectRatio="xMidYMid meet">

<g transform="translate(0.000000,738.000000) scale(0.100000,-0.100000)"
fill="#000000" stroke="none">
<path d="M4365 5778 c-3 -13 -4 -529 -3 -1148 l3 -1125 1248 -3 1247 -2 0
1150 0 1150 -1245 0 -1245 0 -5 -22z m2405 -228 l0 -150 -1155 0 -1155 0 0
150 0 150 1155 0 1155 0 0 -150z m-2 -1102 l-3 -853 -1152 -3 -1153 -2 0 855
0 855 1155 0 1155 0 -2 -852z"/>
<path d="M4569 5591 c-1 -6 -1 -22 -1 -36 0 -56 0 -56 45 -53 l42 3 0 45 0 45
-42 3 c-25 2 -44 -1 -44 -7z"/>
<path d="M4764 5576 c-3 -14 -3 -38 0 -52 6 -23 11 -25 49 -22 l42 3 0 45 0
45 -42 3 c-38 3 -43 1 -49 -22z"/>
<path d="M4970 5550 l0 -51 43 3 42 3 0 45 0 45 -42 3 -43 3 0 -51z"/>
<path d="M5606 4769 c-18 -80 -77 -434 -74 -447 3 -17 68 -36 80 -24 8 8 91
472 86 478 -2 2 -22 6 -45 10 -39 6 -42 4 -47 -17z"/>
<path d="M5255 4640 l-100 -100 102 -102 103 -102 35 34 35 34 -70 71 -70 71
70 69 70 69 -27 28 c-15 15 -32 28 -38 28 -6 0 -55 -45 -110 -100z"/>
<path d="M5827 4712 l-27 -28 70 -69 70 -69 -71 -72 -71 -71 30 -34 31 -34
105 105 106 105 -97 97 c-54 54 -102 98 -108 98 -6 0 -23 -13 -38 -28z"/>
<path d="M2583 2974 c-8 -4 -13 -26 -13 -60 0 -53 1 -54 29 -54 l29 0 6 -117
c3 -65 5 -188 3 -273 l-3 -155 -32 -3 c-32 -3 -32 -3 -32 -62 l0 -59 278 -1
279 0 52 60 53 61 -3 268 -4 269 -45 49 c-25 27 -52 55 -62 61 -17 11 -511 26
-535 16z m493 -145 c20 -19 22 -34 29 -233 l7 -213 -26 -42 c-30 -47 -29 -47
-229 -34 l-107 6 0 268 0 268 98 4 c142 5 203 -1 228 -24z"/>
<path d="M3523 2963 l-53 -4 0 -60 c0 -60 0 -60 28 -57 l27 3 3 -267 2 -268
-30 0 c-30 0 -30 0 -30 -58 l0 -59 318 1 317 1 0 105 0 105 -52 3 -53 3 0 -45
c0 -54 -3 -56 -125 -51 -49 2 -120 3 -157 4 l-68 1 0 95 0 95 70 0 c54 0 72
-4 76 -15 5 -11 21 -15 60 -15 l55 0 -3 97 -3 97 -52 1 c-44 0 -53 -3 -53 -17
0 -20 -24 -23 -104 -12 l-46 7 0 93 0 93 173 -3 172 -3 3 -41 3 -42 55 0 54 0
0 105 0 105 -217 1 c-120 0 -240 2 -268 3 -27 1 -74 1 -102 -1z"/>
<path d="M5347 2925 c-67 -56 -67 -54 -67 -374 0 -261 -3 -248 69 -323 l35
-38 194 0 195 0 53 46 c30 25 54 51 54 58 0 13 -61 76 -74 76 -4 0 -26 -14
-48 -32 l-40 -32 -137 2 c-188 2 -176 -16 -174 277 1 200 3 229 19 246 15 17
32 19 153 19 l135 0 36 -35 c38 -37 39 -37 90 18 l34 37 -49 50 -49 50 -187 0
-187 0 -55 -45z"/>
<path d="M4357 2953 c-4 -3 -7 -30 -7 -60 l0 -53 34 0 c40 0 29 27 130 -310
36 -118 73 -242 83 -275 l19 -60 73 0 73 0 33 105 c18 58 67 202 109 320 42
118 76 216 76 217 0 2 14 3 30 3 l30 0 0 60 0 61 -117 -3 -118 -3 -3 -57 c-2
-47 0 -58 13 -58 8 0 15 -6 15 -12 0 -28 -134 -398 -141 -391 -6 6 -139 387
-139 398 0 1 9 5 20 8 17 4 20 14 20 61 l0 56 -113 0 c-63 0 -117 -3 -120 -7z"/>
<path d="M6130 2905 c0 -54 0 -55 30 -55 l30 0 0 -270 0 -270 -30 0 -30 0 0
-61 0 -61 320 3 321 4 -3 120 -3 120 -50 -1 -50 -1 -5 -53 -5 -52 -135 -5
c-74 -3 -151 -6 -170 -7 l-35 -1 -3 266 -2 266 30 6 c29 6 30 9 30 57 l0 50
-120 0 -120 0 0 -55z"/>
<path d="M7017 2953 c-4 -3 -7 -30 -7 -59 0 -50 1 -53 28 -56 l27 -3 5 -250 5
-250 48 -72 49 -73 216 0 217 0 24 38 c14 20 40 61 58 91 l33 55 0 233 0 233
30 0 30 0 0 60 0 61 -122 -3 -123 -3 -1 -57 c0 -56 0 -58 26 -58 l27 0 6 -152
c12 -261 11 -277 -23 -330 l-30 -48 -138 0 -138 0 -26 39 c-23 36 -25 49 -32
212 -4 96 -4 198 0 227 6 46 9 52 30 52 23 0 24 4 24 60 l0 60 -118 0 c-65 0
-122 -3 -125 -7z"/>
<path d="M8027 2953 c-4 -3 -7 -28 -7 -55 0 -44 2 -48 24 -48 14 0 27 -4 30
-9 3 -5 3 -126 -1 -269 l-6 -261 -24 -6 c-20 -5 -23 -11 -23 -58 l0 -53 251 0
252 1 50 58 51 58 4 92 4 92 -41 39 -40 39 41 45 41 45 -7 96 -6 96 -57 52
-58 53 -236 0 c-130 0 -239 -3 -242 -7z m446 -141 c22 -21 27 -35 27 -71 0
-38 -5 -51 -36 -82 l-37 -38 -106 6 c-58 3 -107 6 -108 7 -2 2 -6 48 -9 103
l-7 102 34 3 c19 2 75 1 124 0 81 -3 93 -6 118 -30z m-7 -339 c35 -47 34 -96
-4 -135 -25 -27 -28 -28 -139 -28 l-113 0 0 100 0 100 114 0 114 0 28 -37z"/>
<path d="M5246 1644 c-19 -19 -22 -134 -4 -152 7 -7 30 -12 53 -12 23 0 46 5
53 12 7 7 12 39 12 74 0 73 -15 94 -65 94 -18 0 -41 -7 -49 -16z m88 -10 c18
-18 22 -95 6 -125 -7 -13 -21 -19 -45 -19 -42 0 -55 20 -55 84 0 50 19 76 55
76 13 0 31 -7 39 -16z"/>
<path d="M5936 1644 c-19 -19 -22 -134 -4 -152 7 -7 31 -12 55 -12 52 0 63 16
63 94 0 65 -16 86 -65 86 -18 0 -41 -7 -49 -16z m94 -13 c5 -11 10 -38 10 -61
0 -59 -14 -80 -53 -80 -45 0 -57 16 -57 73 0 67 13 87 55 87 24 0 38 -6 45
-19z"/>
<path d="M6118 1649 c-15 -8 -18 -24 -18 -83 0 -81 4 -86 64 -86 47 0 56 15
56 92 0 56 -3 69 -19 78 -25 13 -61 12 -83 -1z m80 -11 c17 -17 16 -123 -2
-137 -8 -7 -30 -11 -48 -9 l-33 3 -3 69 c-2 49 1 72 10 77 19 13 62 11 76 -3z"/>
<path d="M4043 1568 c12 -45 27 -83 33 -85 6 -2 19 24 29 57 10 33 22 57 25
53 4 -4 15 -32 25 -60 9 -29 21 -53 25 -53 5 0 14 19 20 43 6 23 16 57 21 75
6 18 9 38 6 45 -2 6 -12 -15 -21 -48 -27 -94 -27 -95 -48 -27 -12 36 -25 61
-31 59 -6 -2 -18 -27 -27 -55 -8 -28 -18 -54 -21 -57 -4 -3 -14 26 -24 65 -9
38 -21 70 -25 70 -5 0 1 -37 13 -82z"/>
<path d="M4270 1565 l0 -85 58 2 57 1 -50 6 c-49 6 -50 6 -50 41 0 33 2 35 40
41 l40 6 -42 2 c-41 1 -43 3 -43 30 0 29 2 30 53 34 l52 3 -57 2 -58 2 0 -85z"/>
<path d="M4480 1565 l0 -85 41 0 c67 0 79 12 79 80 0 86 -3 90 -66 90 l-54 0
0 -85z m104 59 c3 -9 6 -35 6 -59 0 -54 -21 -77 -64 -73 l-31 3 -3 73 -3 72
44 0 c32 0 47 -5 51 -16z"/>
<path d="M4650 1565 l0 -85 58 2 57 1 -50 6 c-49 6 -50 6 -50 41 0 33 2 35 40
41 l40 6 -42 2 c-41 1 -43 3 -43 30 0 29 2 30 53 34 l52 3 -57 2 -58 2 0 -85z"/>
<path d="M4782 1640 c3 -8 16 -48 29 -87 12 -40 28 -73 34 -73 6 0 22 33 34
73 13 39 26 78 28 85 3 6 1 12 -4 12 -5 0 -20 -35 -34 -77 l-25 -78 -23 70
c-13 39 -28 75 -34 80 -7 7 -8 5 -5 -5z"/>
<path d="M4950 1565 l0 -85 58 2 57 1 -50 6 c-49 6 -50 6 -50 41 0 32 3 36 35
41 l35 6 -37 2 c-35 1 -38 3 -38 30 0 29 2 30 53 34 l52 3 -57 2 -58 2 0 -85z"/>
<path d="M5102 1568 l-2 -88 53 2 52 2 -47 3 -47 4 -4 82 -3 82 -2 -87z"/>
<path d="M5412 1563 c0 -49 3 -73 5 -55 4 30 7 32 43 32 60 0 87 40 60 91 -8
15 -22 19 -60 19 l-50 0 2 -87z m96 38 c4 -39 -9 -51 -55 -51 -32 0 -33 1 -33
46 l0 45 43 -3 c40 -3 42 -5 45 -37z"/>
<path d="M5570 1565 l0 -85 58 2 57 1 -50 6 c-49 6 -50 6 -50 41 0 33 2 35 40
41 l40 6 -42 2 c-41 1 -43 3 -43 30 0 29 2 30 53 34 l52 3 -57 2 -58 2 0 -85z"/>
<path d="M5787 1643 c-4 -3 -7 -39 -7 -79 l0 -73 34 -6 c18 -4 44 -5 57 -2 16
3 10 5 -16 6 -61 2 -66 9 -63 82 l3 64 45 6 45 6 -46 1 c-25 1 -49 -1 -52 -5z"/>
<path d="M6270 1565 l0 -85 58 2 c56 2 56 2 10 5 l-48 4 0 80 c0 46 -4 79 -10
79 -6 0 -10 -35 -10 -85z"/>
<path d="M6464 1625 c-8 -33 8 -51 52 -60 67 -12 56 -66 -17 -76 l-44 -6 41
-1 c52 -2 77 15 72 53 -2 24 -9 30 -38 38 -76 19 -78 64 -2 70 l47 3 -52 2
c-49 2 -53 0 -59 -23z"/>
<path d="M6617 1643 l32 -4 4 -82 3 -82 2 82 c2 81 2 82 30 86 15 2 -2 4 -38
4 -36 0 -51 -2 -33 -4z"/>
<path d="M6752 1580 c-2 -87 5 -100 58 -100 53 0 60 13 58 100 l-2 75 -3 -70
c-4 -78 -14 -95 -53 -95 -39 0 -49 17 -53 95 l-3 70 -2 -75z"/>
<path d="M6932 1563 c1 -49 3 -69 5 -46 4 40 6 42 41 46 l37 4 -37 1 c-36 2
-38 4 -38 36 0 34 1 35 48 39 l47 3 -52 2 -53 2 2 -87z"/>
<path d="M7071 1563 c1 -63 4 -76 8 -48 5 36 9 41 41 46 l35 6 -37 2 c-36 1
-38 3 -38 35 0 35 0 35 53 39 l52 3 -57 2 -58 2 1 -87z"/>
</g>
</svg>
